<svg width="2716" height="947" viewBox="0 0 2716 947" fill="none" xmlns="http://www.w3.org/2000/svg">
<path d="M500.665 0.630053L818.061 818.283C830.251 849.631 843.748 871.4 858.551 883.591C874.225 894.911 888.158 901.006 900.348 901.877V928C874.225 926.258 843.313 925.388 807.611 925.388C772.781 924.517 737.514 924.082 701.813 924.082C661.757 924.082 623.879 924.517 588.177 925.388C552.476 925.388 524.176 926.258 503.277 928V901.877C547.687 900.135 575.551 892.734 586.871 879.672C599.062 865.74 596.45 836.569 579.034 792.16L356.988 184.798L380.499 150.838L181.963 668.075C162.806 715.968 151.051 755.152 146.697 785.629C143.214 816.106 145.391 839.617 153.228 856.161C161.935 872.706 175.432 884.462 193.719 891.428C212.876 897.523 235.516 901.006 261.639 901.877V928C232.903 926.258 205.474 925.388 179.351 925.388C153.228 924.517 126.669 924.082 99.6754 924.082C80.5185 924.082 62.2323 924.517 44.8169 925.388C28.2723 925.388 13.4692 926.258 0.407677 928V901.877C18.6938 898.394 37.4154 886.638 56.5723 866.611C75.7293 846.583 94.4508 812.623 112.737 764.731L410.54 0.630053C424.473 1.50081 439.276 1.93619 454.95 1.93619C471.494 1.93619 486.733 1.50081 500.665 0.630053ZM592.096 551.827V577.951H202.862L215.923 551.827H592.096ZM910.093 3.24241C931.863 4.11317 961.034 4.98392 997.606 5.85468C1035.05 6.72544 1072.06 7.16082 1108.63 7.16082C1150.43 7.16082 1190.92 6.72544 1230.1 5.85468C1269.29 4.98392 1297.15 4.54854 1313.7 4.54854C1394.68 4.54854 1461.73 13.6916 1514.84 31.9778C1568.83 49.3932 1608.89 75.0809 1635.01 109.041C1662 143.001 1675.5 183.927 1675.5 231.819C1675.5 261.426 1669.4 291.467 1657.21 321.944C1645.02 351.55 1624.12 379.415 1594.52 405.538C1565.78 430.79 1526.16 451.253 1475.66 466.927C1425.15 481.73 1361.59 489.132 1284.96 489.132H1159.57V463.009H1271.9C1323.27 463.009 1362.02 453.43 1388.15 434.273C1415.14 414.246 1433.43 388.123 1443 355.904C1453.45 322.815 1458.68 286.243 1458.68 246.187C1458.68 177.396 1446.49 124.279 1422.11 86.8362C1397.72 48.5224 1355.93 29.3655 1296.72 29.3655C1262.76 29.3655 1240.55 36.767 1230.1 51.5701C1220.52 66.3732 1215.73 96.4147 1215.73 141.695V789.548C1215.73 820.895 1217.91 844.406 1222.26 860.08C1227.49 875.754 1237.07 886.203 1251 891.428C1264.93 896.652 1285.83 900.135 1313.7 901.877V928C1290.18 926.258 1260.58 925.388 1224.88 925.388C1189.18 924.517 1153.04 924.082 1116.47 924.082C1074.67 924.082 1035.05 924.517 997.606 925.388C961.034 925.388 931.863 926.258 910.093 928V901.877C937.958 900.135 958.857 896.652 972.789 891.428C986.721 886.203 995.864 875.754 1000.22 860.08C1005.44 844.406 1008.06 820.895 1008.06 789.548V141.695C1008.06 109.476 1005.44 85.9655 1000.22 71.1624C995.864 55.4886 986.286 45.0393 971.483 39.8147C957.55 33.7193 937.087 30.2362 910.093 29.3655V3.24241ZM1156.96 466.927C1194.4 467.798 1226.62 469.54 1253.61 472.152C1281.48 474.764 1305.86 477.377 1326.76 479.989C1347.66 481.73 1366.38 483.037 1382.92 483.907C1462.16 490.874 1520.5 507.854 1557.95 534.847C1596.26 561.841 1621.08 602.332 1632.4 656.32L1662.44 790.854C1670.28 825.685 1678.55 850.066 1687.26 863.998C1695.96 877.931 1708.59 884.897 1725.13 884.897C1736.45 884.026 1745.6 881.414 1752.56 877.06C1760.4 871.835 1768.67 864.434 1777.38 854.855L1795.67 870.529C1772.16 897.523 1746.9 916.68 1719.91 928C1692.92 940.191 1660.26 946.286 1621.95 946.286C1574.93 946.286 1536.18 936.272 1505.7 916.245C1475.22 896.217 1455.2 859.209 1445.62 805.221L1422.11 674.606C1416.01 638.034 1408.61 606.251 1399.9 579.257C1391.19 551.392 1379 529.623 1363.33 513.949C1348.53 497.404 1327.63 489.132 1300.63 489.132H1159.57L1156.96 466.927ZM2669.98 3.24241V28.0593C2642.12 34.1547 2612.08 46.3455 2579.86 64.6317C2548.51 82.9178 2515.42 112.524 2480.59 153.45L2235.03 446.029L2310.79 337.618L2621.66 822.201C2633.85 842.229 2646.91 858.338 2660.84 870.529C2674.77 882.72 2693.06 893.169 2715.7 901.877V928C2685.22 926.258 2651.26 925.388 2613.82 925.388C2576.38 924.517 2542.42 924.082 2511.94 924.082C2493.65 924.082 2471.45 924.517 2445.33 925.388C2419.2 925.388 2386.11 926.258 2346.06 928V901.877C2381.76 900.135 2403.09 895.346 2410.06 887.509C2417.9 878.802 2414.85 863.998 2400.92 843.1L2211.52 536.154C2199.33 516.126 2188.45 501.323 2178.87 491.744C2169.29 481.295 2159.71 474.329 2150.13 470.846C2140.56 466.492 2127.93 463.88 2112.26 463.009V435.58C2150.57 434.709 2184.53 424.26 2214.14 404.232C2244.61 384.204 2277.7 353.727 2313.4 312.801L2390.47 220.064C2423.56 180.879 2442.71 147.355 2447.94 119.49C2454.03 90.7548 2448.37 68.5501 2430.96 52.8763C2414.41 37.2024 2388.73 28.9301 2353.89 28.0593V3.24241C2375.66 4.11317 2396.13 4.98392 2415.28 5.85468C2435.31 5.85468 2455.77 6.29006 2476.67 7.16082C2498.44 7.16082 2521.95 7.16082 2547.21 7.16082C2572.46 7.16082 2595.1 6.72544 2615.13 5.85468C2636.02 4.98392 2654.31 4.11317 2669.98 3.24241ZM2218.05 3.24241V29.3655C2190.19 30.2362 2168.86 33.7193 2154.05 39.8147C2140.12 45.0393 2130.98 55.4886 2126.62 71.1624C2122.27 85.9655 2120.09 109.476 2120.09 141.695V789.548C2120.09 820.895 2122.27 844.406 2126.62 860.08C2131.85 875.754 2141.43 886.203 2155.36 891.428C2169.29 896.652 2190.19 900.135 2218.05 901.877V928C2194.54 926.258 2164.94 925.388 2129.24 925.388C2093.53 924.517 2057.4 924.082 2020.83 924.082C1979.03 924.082 1939.41 924.517 1901.96 925.388C1865.39 925.388 1836.22 926.258 1814.45 928V901.877C1842.32 900.135 1863.22 896.652 1877.15 891.428C1891.08 886.203 1900.22 875.754 1904.58 860.08C1909.8 844.406 1912.41 820.895 1912.41 789.548V141.695C1912.41 109.476 1909.8 85.9655 1904.58 71.1624C1900.22 55.4886 1890.64 45.0393 1875.84 39.8147C1861.91 33.7193 1841.45 30.2362 1814.45 29.3655V3.24241C1836.22 4.11317 1865.39 4.98392 1901.96 5.85468C1939.41 6.72544 1979.03 7.16082 2020.83 7.16082C2057.4 7.16082 2093.53 6.72544 2129.24 5.85468C2164.94 4.98392 2194.54 4.11317 2218.05 3.24241Z" fill="white"/>
</svg>
