<svg width="348" height="166" viewBox="0 0 348 166" fill="none" xmlns="http://www.w3.org/2000/svg">
<rect width="348" height="166" fill="white"/>
<path d="M189.59 62.806C183.605 62.806 179.148 65.7449 179.148 72.818C179.148 78.1471 182.086 81.8464 189.268 81.8464C195.356 81.8464 199.49 78.2595 199.49 72.5979C199.49 66.1819 195.79 62.806 189.59 62.806ZM177.62 112.746C176.204 114.484 174.793 116.331 174.793 118.511C174.793 122.859 180.338 124.167 187.955 124.167C194.265 124.167 202.86 123.726 202.86 117.859C202.86 114.372 198.725 114.156 193.5 113.828L177.62 112.746ZM209.821 63.135C211.776 65.6379 213.846 69.1198 213.846 74.124C213.846 86.199 204.381 93.27 190.677 93.27C187.192 93.27 184.037 92.8359 182.081 92.2929L178.49 98.0577L189.15 98.7089C207.972 99.9081 219.065 100.453 219.065 114.917C219.065 127.431 208.08 134.498 189.15 134.498C169.46 134.498 161.954 129.493 161.954 120.9C161.954 116.002 164.13 113.397 167.937 109.802C164.346 108.284 163.151 105.566 163.151 102.627C163.151 100.232 164.346 98.0569 166.307 95.9885C168.265 93.9235 170.44 91.8537 173.051 89.4611C167.721 86.8507 163.695 81.1935 163.695 73.1421C163.695 60.6331 171.964 52.0421 188.605 52.0421C193.284 52.0421 196.114 52.4727 198.616 53.1295H219.831V62.3741L209.821 63.135Z" fill="#413000"/>
<path d="M238.98 43.366C232.778 43.366 229.189 39.7728 229.189 33.5696C229.189 27.3742 232.778 23.9992 238.98 23.9992C245.29 23.9992 248.88 27.3742 248.88 33.5696C248.88 39.7727 245.29 43.366 238.98 43.366ZM224.944 108.742V100.152L230.494 99.3929C232.018 99.1721 232.234 98.8484 232.234 97.2127V65.2297C232.234 64.0355 231.909 63.2707 230.818 62.9469L224.944 60.8781L226.14 52.0695H248.661V97.2135C248.661 98.9573 248.766 99.173 250.403 99.3937L255.951 100.153V108.743H224.943" fill="#413000"/>
<path d="M298.97 104.526C294.29 106.808 287.438 108.875 281.234 108.875C268.289 108.875 263.395 103.658 263.395 91.3601V62.8601C263.395 62.2087 263.395 61.7717 262.521 61.7717H254.907V52.0901C264.483 50.9993 268.288 46.2117 269.485 34.3541H279.821V49.8071C279.821 50.5659 279.821 50.8945 280.692 50.8945H296.03V61.7715H279.821V87.7705C279.821 94.1899 281.346 96.6899 287.218 96.6899C290.268 96.6899 293.419 95.9307 296.03 94.9507L298.97 104.526Z" fill="#413000"/>
<path d="M137.78 75.977L88.0349 26.2381C85.1727 23.3733 80.5267 23.3733 77.6609 26.2381L67.3319 36.5681L80.4339 49.6701C83.4798 48.6417 86.971 49.3312 89.3978 51.7585C91.8372 54.2009 92.5218 57.7219 91.4676 60.778L104.096 73.406C107.151 72.3532 110.676 73.0334 113.115 75.4772C116.526 78.8868 116.526 84.4117 113.115 87.8222C109.704 91.2338 104.179 91.2338 100.766 87.8222C98.2016 85.2557 97.5673 81.4877 98.8662 78.328L87.0892 66.551L87.0882 97.542C87.9197 97.9536 88.7044 98.503 89.3973 99.1929C92.8069 102.602 92.8069 108.126 89.3973 111.541C85.9867 114.95 80.4593 114.95 77.0523 111.541C73.6422 108.126 73.6422 102.602 77.0523 99.1929C77.895 98.3516 78.8702 97.7149 79.9107 97.2881V66.0091C78.8697 65.5841 77.8957 64.9521 77.0517 64.1041C74.4687 61.5231 73.8466 57.7321 75.1713 54.5602L62.2553 41.6422L28.1493 75.7472C25.2836 78.6142 25.2836 83.2602 28.1493 86.1252L77.8913 135.864C80.7551 138.729 85.3995 138.729 88.2673 135.864L137.779 86.3602C140.644 83.494 140.644 78.8466 137.779 75.9812" fill="#F05133"/>
</svg>
