<svg width="395" height="124" viewBox="0 0 395 124" fill="none" xmlns="http://www.w3.org/2000/svg">
<path d="M245.74 97.38V100.14H238.91V123.38H235.64V100.14H228.77V97.38H245.75H245.74Z" fill="#231F20"/>
<path d="M253.04 100.14V108.83H262.18V111.63H253.04V120.58H263.26V123.38H249.77V97.3401H263.26V100.14H253.04Z" fill="#231F20"/>
<path d="M271.49 120.61H280.27V123.37H268.22V97.37H271.49V120.61Z" fill="#231F20"/>
<path d="M287.03 100.14V108.83H296.17V111.63H287.03V120.58H297.25V123.38H283.76V97.3401H297.25V100.14H287.03Z" fill="#231F20"/>
<path d="M302.64 103.51C303.74 101.48 305.25 99.9 307.15 98.76C309.06 97.62 311.17 97.04 313.5 97.04C316.23 97.04 318.62 97.72 320.66 99.09C322.7 100.46 324.19 102.4 325.12 104.91H321.2C320.5 103.34 319.5 102.14 318.2 101.29C316.89 100.44 315.33 100.02 313.51 100.02C311.69 100.02 310.19 100.44 308.8 101.29C307.41 102.14 306.32 103.34 305.53 104.89C304.74 106.44 304.34 108.27 304.34 110.35C304.34 112.43 304.74 114.22 305.53 115.78C306.32 117.33 307.41 118.53 308.8 119.38C310.19 120.23 311.76 120.65 313.51 120.65C315.26 120.65 316.9 120.23 318.2 119.4C319.51 118.57 320.51 117.37 321.2 115.8H325.12C324.19 118.29 322.7 120.21 320.66 121.56C318.62 122.92 316.24 123.59 313.5 123.59C311.17 123.59 309.06 123.02 307.15 121.89C305.24 120.76 303.74 119.19 302.64 117.17C301.54 115.16 300.99 112.88 300.99 110.34C300.99 107.8 301.54 105.52 302.64 103.5V103.51Z" fill="#231F20"/>
<path d="M334.98 121.94C333.06 120.81 331.55 119.23 330.43 117.2C329.31 115.17 328.76 112.89 328.76 110.36C328.76 107.83 329.32 105.54 330.43 103.52C331.55 101.49 333.06 99.9201 334.98 98.7801C336.9 97.6401 339.02 97.0801 341.35 97.0801C343.68 97.0801 345.83 97.6501 347.75 98.7801C349.67 99.9101 351.18 101.48 352.28 103.5C353.38 105.51 353.93 107.8 353.93 110.36C353.93 112.92 353.38 115.21 352.28 117.22C351.18 119.23 349.67 120.81 347.75 121.94C345.83 123.07 343.7 123.64 341.35 123.64C339 123.64 336.9 123.07 334.98 121.94ZM346.08 119.42C347.48 118.58 348.59 117.37 349.39 115.8C350.19 114.23 350.6 112.42 350.6 110.35C350.6 108.28 350.2 106.44 349.39 104.89C348.59 103.34 347.49 102.14 346.1 101.29C344.71 100.44 343.13 100.02 341.35 100.02C339.57 100.02 337.99 100.44 336.6 101.29C335.21 102.14 334.11 103.34 333.31 104.89C332.51 106.44 332.1 108.27 332.1 110.35C332.1 112.43 332.5 114.23 333.31 115.8C334.11 117.37 335.22 118.57 336.62 119.42C338.02 120.27 339.6 120.69 341.35 120.69C343.1 120.69 344.68 120.27 346.08 119.42Z" fill="#231F20"/>
<path d="M383.69 97.5601V123.37H380.42V104.12L372.15 123.37H369.85L361.54 104.09V123.37H358.27V97.5601H361.8L371.01 118.9L380.22 97.5601H383.71H383.69Z" fill="#231F20"/>
<path d="M166.58 31.78C165.01 41.16 163.5 50.16 161.99 59.16C161.29 63.34 160.59 67.51 159.91 71.69C159.34 75.17 158.41 75.99 154.92 75.99C152.39 75.99 149.85 76.01 147.32 75.99C144.62 75.97 143.51 75.08 143.07 72.44C141.95 65.77 140.89 59.09 139.8 52.42C139.16 48.46 138.53 44.49 137.88 40.53C137.79 39.98 137.57 39.44 136.91 38.8C136.7 39.32 136.4 39.83 136.31 40.37C134.61 50.93 132.94 61.5 131.23 72.06C130.73 75.16 129.7 75.98 126.61 75.99C123.85 76 121.1 75.99 118.34 75.99C116.13 76 114.81 74.87 114.46 72.76C112.19 59.28 109.97 45.8 107.73 32.32C107.72 32.25 107.77 32.18 107.88 31.79C110.8 31.79 113.82 31.74 116.83 31.85C117.19 31.86 117.76 32.73 117.83 33.26C119.39 44.68 120.88 56.1 122.41 67.52C122.47 67.99 122.69 68.43 122.83 68.89C123.08 68.88 123.32 68.86 123.57 68.85C124.06 66.06 124.57 63.28 125.04 60.49C126.43 52.28 127.79 44.07 129.19 35.87C129.75 32.6 130.79 31.77 134.16 31.76C136.32 31.76 138.48 31.73 140.64 31.76C143.24 31.8 144.34 32.68 144.76 35.18C146.58 45.87 148.35 56.57 150.16 67.27C150.25 67.8 150.48 68.32 150.64 68.84C150.84 68.86 151.04 68.88 151.24 68.9C151.44 68.31 151.75 67.72 151.83 67.11C153.36 55.77 154.86 44.42 156.43 33.08C156.5 32.58 157.29 31.83 157.77 31.81C160.58 31.69 163.4 31.75 166.56 31.75L166.58 31.78Z" fill="#231F20"/>
<path d="M220.73 42.8601V75.8401H211.64C211.6 75.0801 211.54 74.2901 211.54 73.4901C211.54 61.2701 211.53 49.0501 211.54 36.8301C211.54 32.5701 212.4 32.1301 216.65 31.6801C221.84 31.1301 224.62 33.1101 226.68 37.8601C230.48 46.6501 234.9 55.1701 239.06 63.8001C239.17 64.0401 239.35 64.2401 239.75 64.8101V31.9001H248.78C248.82 32.7401 248.89 33.4601 248.89 34.1801C248.89 46.5501 248.89 58.9301 248.89 71.3001C248.89 73.9001 246.77 76.0101 244.17 75.9701C236.36 75.8701 237.38 77.2201 233.52 69.3201C231.37 64.9101 229.16 60.5301 227.03 56.1201C224.94 51.8001 222.91 47.4401 220.74 42.8401L220.73 42.8601Z" fill="#231F20"/>
<path d="M325.08 75.74C319.52 75.89 314.19 76.07 308.86 76.17C306.76 76.21 304.65 76.19 302.56 75.99C298.27 75.57 294.99 71.95 294.96 67.64C294.9 58.48 294.9 49.32 294.96 40.17C294.99 35.61 298.29 31.94 302.87 31.8C310.14 31.58 317.43 31.74 324.8 31.74C324.8 34.39 324.92 36.45 324.71 38.48C324.67 38.91 323.44 39.52 322.75 39.53C318.14 39.62 313.52 39.55 308.9 39.57C305.26 39.59 304.77 40.1 304.77 43.7C304.77 45.55 304.77 47.39 304.77 49.49H322.15V56.6H304.81C304.81 59.9 304.72 62.94 304.84 65.96C304.92 67.82 306.3 68.37 307.98 68.37C312.67 68.37 317.36 68.37 322.05 68.37C322.86 68.37 323.67 68.37 324.72 68.37C324.83 70.75 324.94 72.95 325.08 75.74Z" fill="#231F20"/>
<path d="M287.3 39.58C283.31 39.58 279.6 39.58 275.89 39.58C271.2 39.58 267.29 43.2 266.94 47.88C266.59 52.56 266.79 57.2 267.29 61.81C267.79 66.52 270.21 68.26 275.03 68.32C279.33 68.37 283.64 68.32 288.2 68.32C288.42 70.23 288.69 72.48 288.97 74.93C283.38 76.59 277.81 77.04 272.15 76.68C271.11 76.61 270.07 76.47 269.05 76.28C262.66 75.09 258.75 71.34 257.39 64.95C255.83 57.64 255.84 50.34 257.36 43.02C258.59 37.1 263.33 32.44 269.31 31.53C275.29 30.62 281.73 31.11 288.05 32.49C287.79 34.96 287.55 37.23 287.3 39.56V39.58Z" fill="#231F20"/>
<path d="M187.49 53.28C190.43 46.61 193.38 39.97 196.28 33.32C196.75 32.25 197.31 31.69 198.59 31.75C201.26 31.86 203.94 31.78 207.02 31.78C206.58 32.77 206.27 33.55 205.9 34.3C201.89 42.5 197.83 50.67 193.91 58.9C193.15 60.49 192.73 62.23 192.66 63.99C192.5 67.91 192.61 71.84 192.61 75.88H182.77C182.77 72.63 182.64 69.38 182.81 66.15C182.98 62.94 182.28 60.09 180.78 57.21C176.85 49.63 173.17 41.92 169.39 34.26C169.04 33.55 168.74 32.81 168.28 31.78C171.54 31.78 174.49 31.72 177.42 31.84C177.96 31.86 178.71 32.54 178.94 33.1C181.79 39.78 184.56 46.49 187.37 53.19C187.42 53.3 187.58 53.36 187.48 53.29L187.49 53.28Z" fill="#231F20"/>
<path d="M366.2 31.9H375.83C375.83 32.79 375.83 33.59 375.83 34.38C375.83 44.14 375.83 53.9 375.83 63.66C375.83 67.53 376.28 67.97 380.24 67.98C384.85 67.99 389.46 67.98 394.44 67.98C394.55 70.46 394.65 72.81 394.77 75.4C393.7 75.54 392.7 75.76 391.69 75.78C385.74 75.88 379.78 76.16 373.83 75.95C369.23 75.79 366.11 72.34 366.07 67.72C365.97 56.1 366.04 44.48 366.04 32.86C366.04 32.58 366.13 32.3 366.19 31.91L366.2 31.9Z" fill="#231F20"/>
<path d="M332.24 31.9H341.58C341.63 32.74 341.73 33.6 341.73 34.45C341.73 44.13 341.73 53.81 341.73 63.48C341.73 65.96 343.74 67.96 346.22 67.97C350.82 67.97 355.43 67.97 360.25 67.97C360.43 70.5 360.6 72.84 360.78 75.46C358.55 75.64 356.51 75.92 354.46 75.95C349.55 76.03 344.63 76.18 339.73 75.95C335.29 75.74 332.13 72.52 332.08 68.15C331.94 56.31 332.01 44.47 332 32.63C332 32.43 332.12 32.22 332.23 31.9H332.24Z" fill="#231F20"/>
<path d="M0 9.87002C0.61 7.06002 1.21 4.25002 1.82 1.44002C1.88 1.17002 2.05 0.920024 2.3 0.400024C3.42 2.27002 4.31 4.02002 5.42 5.61002C9.33 11.22 14.48 15.61 20.45 18.71C31.39 24.4 42.62 29.5 53.67 34.98C60.58 38.41 67.46 41.95 74.19 45.73C81.09 49.61 84.24 56.2 85.45 63.64C87.21 74.49 88.54 85.41 90.04 96.3C90.09 96.64 89.98 97.01 89.91 97.67C86.64 97.26 83.47 96.99 80.35 96.44C67.5 94.2 54.88 91.13 42.92 85.79C33.1 81.4 24 75.94 17.58 67C15.65 64.31 14.24 61.26 12.6 58.37L13.02 57.93C17.88 60.51 22.66 63.24 27.61 65.64C32.59 68.06 37.82 69.85 43.63 70.81C37.65 67.87 31.91 65.27 26.38 62.26C18.49 57.96 11.23 52.78 5.8 45.43C1.87 40.09 -0.12 34.22 1.1 27.18C12.57 40.91 28.44 46.55 44.32 52.19C40.08 50.18 35.79 48.27 31.62 46.12C23.51 41.95 15.88 37.07 9.53 30.4C4.59 25.22 0.98 19.36 0.3 12.03C0.27 11.75 0.1 11.49 0 11.21V9.87002Z" fill="#00ACCD"/>
</svg>
