<svg width="206" height="64" viewBox="0 0 206 64" fill="none" xmlns="http://www.w3.org/2000/svg">
<path d="M0.00514803 5.16905C0.319111 3.72276 0.627926 2.27648 0.941889 0.830192C0.972771 0.691225 1.06027 0.562547 1.18894 0.294907C1.7654 1.25738 2.22347 2.1581 2.79478 2.97646C4.80723 5.86389 7.4579 8.12339 10.5306 9.71894C16.1614 12.6475 21.9414 15.2725 27.6287 18.093C31.1853 19.8584 34.7263 21.6804 38.1902 23.6259C41.7416 25.623 43.3629 29.0148 43.9857 32.8441C44.8915 38.4285 45.5761 44.049 46.3481 49.654C46.3738 49.829 46.3172 50.0194 46.2812 50.3591C44.5982 50.1481 42.9666 50.0091 41.3607 49.726C34.7469 48.5731 28.2515 46.993 22.0958 44.2446C17.0415 41.9851 12.3578 39.1748 9.05345 34.5735C8.06009 33.1889 7.33438 31.6191 6.49028 30.1317L6.70645 29.9052C9.20786 31.2331 11.6681 32.6382 14.2158 33.8735C16.779 35.119 19.4708 36.0403 22.4612 36.5344C19.3833 35.0213 16.429 33.683 13.5828 32.1338C9.52182 29.9206 5.78515 27.2545 2.99037 23.4715C0.962475 20.7179 -0.061764 17.6967 0.566162 14.0784C6.46969 21.1451 14.6379 24.048 22.8112 26.9509C20.6289 25.9163 18.4209 24.9333 16.2746 23.8267C12.1004 21.6804 8.17333 19.1687 4.90502 15.7357C2.36244 13.0644 0.504401 10.0483 0.154409 6.27564C0.138969 6.13152 0.0514693 5.99771 0 5.85359V5.16391L0.00514803 5.16905Z" fill="#00ACCD"/>
<path d="M128.833 50.1892V51.6098H125.318V63.5712H123.634V51.6098H120.099V50.1892H128.838H128.833Z" fill="white"/>
<path d="M132.59 51.6098V56.0825H137.294V57.5236H132.59V62.1301H137.85V63.5712H130.907V50.1686H137.85V51.6098H132.59Z" fill="white"/>
<path d="M142.086 62.1507H146.605V63.5712H140.403V50.1892H142.086V62.1507Z" fill="white"/>
<path d="M150.085 51.6098V56.0825H154.789V57.5236H150.085V62.1301H155.345V63.5712H148.401V50.1686H155.345V51.6098H150.085Z" fill="white"/>
<path d="M158.119 53.3443C158.685 52.2995 159.462 51.4863 160.44 50.8995C161.423 50.3128 162.509 50.0142 163.708 50.0142C165.114 50.0142 166.344 50.3642 167.394 51.0694C168.444 51.7745 169.211 52.773 169.689 54.0649H167.672C167.311 53.2568 166.797 52.6392 166.128 52.2017C165.453 51.7642 164.65 51.548 163.714 51.548C162.777 51.548 162.005 51.7642 161.289 52.2017C160.574 52.6392 160.013 53.2568 159.606 54.0546C159.2 54.8524 158.994 55.7942 158.994 56.8648C158.994 57.9354 159.2 58.8567 159.606 59.6596C160.013 60.4574 160.574 61.075 161.289 61.5125C162.005 61.95 162.813 62.1661 163.714 62.1661C164.614 62.1661 165.458 61.95 166.128 61.5228C166.802 61.0956 167.316 60.478 167.672 59.6699H169.689C169.211 60.9515 168.444 61.9397 167.394 62.6345C166.344 63.3345 165.119 63.6793 163.708 63.6793C162.509 63.6793 161.423 63.386 160.44 62.8044C159.457 62.2228 158.685 61.4147 158.119 60.375C157.553 59.3405 157.27 58.167 157.27 56.8596C157.27 55.5523 157.553 54.3788 158.119 53.3391V53.3443Z" fill="white"/>
<path d="M174.764 62.8301C173.776 62.2485 172.999 61.4353 172.422 60.3905C171.846 59.3456 171.563 58.1721 171.563 56.87C171.563 55.5678 171.851 54.3891 172.422 53.3495C172.999 52.3046 173.776 51.4966 174.764 50.9098C175.752 50.3231 176.843 50.0348 178.043 50.0348C179.242 50.0348 180.349 50.3282 181.337 50.9098C182.325 51.4914 183.102 52.2995 183.668 53.3392C184.234 54.3737 184.518 55.5523 184.518 56.87C184.518 58.1876 184.234 59.3662 183.668 60.4007C183.102 61.4353 182.325 62.2485 181.337 62.8301C180.349 63.4117 179.252 63.7051 178.043 63.7051C176.833 63.7051 175.752 63.4117 174.764 62.8301ZM180.477 61.5331C181.198 61.1007 181.769 60.478 182.181 59.6699C182.593 58.8618 182.804 57.9302 182.804 56.8648C182.804 55.7994 182.598 54.8524 182.181 54.0546C181.769 53.2568 181.203 52.6392 180.488 52.2017C179.772 51.7642 178.959 51.548 178.043 51.548C177.127 51.548 176.313 51.7642 175.598 52.2017C174.883 52.6392 174.316 53.2568 173.905 54.0546C173.493 54.8524 173.282 55.7942 173.282 56.8648C173.282 57.9354 173.488 58.8618 173.905 59.6699C174.316 60.478 174.888 61.0956 175.608 61.5331C176.329 61.9706 177.142 62.1867 178.043 62.1867C178.943 62.1867 179.757 61.9706 180.477 61.5331Z" fill="white"/>
<path d="M199.835 50.287V63.5713H198.152V53.6634L193.895 63.5713H192.711L188.434 53.648V63.5713H186.751V50.287H188.568L193.308 61.2706L198.049 50.287H199.845H199.835Z" fill="white"/>
<path d="M88.0898 16.4254C87.2817 21.2532 86.5045 25.8854 85.7273 30.5177C85.367 32.6691 85.0068 34.8154 84.6568 36.9668C84.3634 38.7579 83.8847 39.18 82.0884 39.18C80.7863 39.18 79.479 39.1903 78.1768 39.18C76.7871 39.1697 76.2158 38.7116 75.9893 37.3528C75.4129 33.9198 74.8673 30.4817 74.3063 27.0486C73.9769 25.0105 73.6526 22.9671 73.3181 20.9289C73.2718 20.6459 73.1585 20.3679 72.8188 20.0385C72.7107 20.3062 72.5563 20.5687 72.51 20.8466C71.635 26.2818 70.7755 31.7221 69.8954 37.1572C69.638 38.7528 69.1079 39.1748 67.5175 39.18C66.0969 39.1851 64.6815 39.18 63.261 39.18C62.1235 39.1851 61.4441 38.6035 61.264 37.5175C60.0956 30.5794 58.953 23.6414 57.8001 16.7033C57.7949 16.6673 57.8207 16.6313 57.8773 16.4305C59.3802 16.4305 60.9346 16.4048 62.4838 16.4614C62.6691 16.4666 62.9625 16.9143 62.9985 17.1871C63.8014 23.0649 64.5683 28.9427 65.3558 34.8205C65.3867 35.0624 65.4999 35.2889 65.572 35.5256C65.7006 35.5205 65.8242 35.5102 65.9528 35.5051C66.205 34.0691 66.4675 32.6382 66.7094 31.2022C67.4248 26.9766 68.1248 22.751 68.8454 18.5305C69.1336 16.8474 69.6689 16.4202 71.4034 16.4151C72.5152 16.4151 73.6269 16.3997 74.7386 16.4151C76.0768 16.4357 76.643 16.8886 76.8592 18.1753C77.7959 23.6774 78.7069 29.1846 79.6385 34.6918C79.6848 34.9646 79.8032 35.2323 79.8856 35.4999C79.9885 35.5102 80.0914 35.5205 80.1944 35.5308C80.2973 35.2271 80.4569 34.9235 80.4981 34.6095C81.2855 28.7729 82.0576 22.9311 82.8656 17.0945C82.9017 16.8371 83.3083 16.4511 83.5553 16.4408C85.0016 16.3791 86.453 16.4099 88.0795 16.4099L88.0898 16.4254Z" fill="white"/>
<path d="M115.96 22.1282V39.1028H111.282C111.261 38.7116 111.23 38.305 111.23 37.8932C111.23 31.6037 111.225 25.3141 111.23 19.0246C111.23 16.832 111.673 16.6055 113.86 16.3739C116.532 16.0908 117.962 17.1099 119.023 19.5547C120.979 24.0789 123.254 28.4641 125.395 32.9059C125.451 33.0294 125.544 33.1323 125.75 33.4257V16.4872H130.397C130.418 16.9195 130.454 17.2901 130.454 17.6607C130.454 24.0274 130.454 30.3993 130.454 36.7661C130.454 38.1043 129.363 39.1903 128.025 39.1697C124.005 39.1182 124.53 39.813 122.543 35.747C121.437 33.4772 120.299 31.2228 119.203 28.953C118.127 26.7296 117.082 24.4855 115.965 22.1179L115.96 22.1282Z" fill="white"/>
<path d="M169.669 39.0513C166.807 39.1285 164.064 39.2211 161.32 39.2726C160.239 39.2932 159.153 39.2829 158.078 39.1799C155.87 38.9638 154.182 37.1006 154.166 34.8823C154.135 30.1677 154.135 25.4531 154.166 20.7436C154.182 18.3966 155.88 16.5077 158.237 16.4357C161.979 16.3224 165.731 16.4048 169.525 16.4048C169.525 17.7687 169.586 18.829 169.478 19.8738C169.458 20.0951 168.825 20.4091 168.469 20.4142C166.097 20.4606 163.719 20.4245 161.341 20.4348C159.467 20.4451 159.215 20.7076 159.215 22.5605C159.215 23.5127 159.215 24.4597 159.215 25.5406H168.161V29.2H159.236C159.236 30.8985 159.19 32.4632 159.251 34.0176C159.292 34.9749 160.003 35.258 160.867 35.258C163.281 35.258 165.695 35.258 168.109 35.258C168.526 35.258 168.943 35.258 169.483 35.258C169.54 36.483 169.597 37.6153 169.669 39.0513Z" fill="white"/>
<path d="M150.223 20.44C148.17 20.44 146.26 20.44 144.351 20.44C141.937 20.44 139.924 22.3032 139.744 24.7119C139.564 27.1207 139.667 29.5089 139.924 31.8816C140.182 34.3058 141.427 35.2014 143.908 35.2323C146.121 35.258 148.34 35.2323 150.687 35.2323C150.8 36.2153 150.939 37.3734 151.083 38.6344C148.206 39.4888 145.339 39.7204 142.426 39.5351C141.891 39.4991 141.355 39.427 140.83 39.3292C137.541 38.7167 135.529 36.7866 134.829 33.4978C134.026 29.7354 134.031 25.9781 134.814 22.2105C135.447 19.1636 137.886 16.7651 140.964 16.2967C144.042 15.8283 147.357 16.0805 150.609 16.7908C150.476 18.0621 150.352 19.2305 150.223 20.4297V20.44Z" fill="white"/>
<path d="M98.852 27.4913C100.365 24.0583 101.884 20.6407 103.376 17.218C103.618 16.6673 103.906 16.3791 104.565 16.4099C105.939 16.4665 107.319 16.4254 108.904 16.4254C108.677 16.9349 108.518 17.3364 108.327 17.7224C106.264 21.9429 104.174 26.1479 102.156 30.3839C101.765 31.2022 101.549 32.0978 101.513 33.0036C101.431 35.0212 101.487 37.044 101.487 39.1233H96.4226C96.4226 37.4506 96.3557 35.7778 96.4432 34.1154C96.5307 32.4632 96.1704 30.9963 95.3984 29.514C93.3756 25.6126 91.4816 21.6444 89.536 17.7018C89.3559 17.3364 89.2015 16.9555 88.9647 16.4254C90.6426 16.4254 92.161 16.3945 93.669 16.4563C93.947 16.4666 94.333 16.8165 94.4514 17.1048C95.9182 20.5429 97.3439 23.9965 98.7902 27.445C98.8159 27.5016 98.8983 27.5325 98.8468 27.4964L98.852 27.4913Z" fill="white"/>
<path d="M190.833 16.4871H195.789C195.789 16.9452 195.789 17.357 195.789 17.7636C195.789 22.787 195.789 27.8104 195.789 32.8338C195.789 34.8256 196.021 35.0521 198.059 35.0573C200.432 35.0624 202.805 35.0573 205.368 35.0573C205.424 36.3337 205.476 37.5432 205.538 38.8763C204.987 38.9483 204.472 39.0616 203.952 39.0719C200.89 39.1233 197.822 39.2675 194.76 39.1594C192.392 39.077 190.786 37.3013 190.766 34.9234C190.714 28.9427 190.75 22.962 190.75 16.9812C190.75 16.8371 190.797 16.693 190.828 16.4923L190.833 16.4871Z" fill="white"/>
<path d="M173.354 16.4871H178.161C178.187 16.9195 178.238 17.3621 178.238 17.7996C178.238 22.7818 178.238 27.7641 178.238 32.7411C178.238 34.0176 179.273 35.047 180.549 35.0521C182.917 35.0521 185.29 35.0521 187.77 35.0521C187.863 36.3543 187.95 37.5587 188.043 38.9072C186.895 38.9998 185.845 39.1439 184.79 39.1594C182.263 39.2005 179.731 39.2777 177.209 39.1594C174.924 39.0513 173.297 37.394 173.271 35.1448C173.199 29.0508 173.235 22.9568 173.23 16.8629C173.23 16.7599 173.292 16.6518 173.349 16.4871H173.354Z" fill="white"/>
</svg>
