<svg width="25" height="24" viewBox="0 0 25 24" fill="none" xmlns="http://www.w3.org/2000/svg">
<path d="M0.90625 0.0055542H24.65V23.7493H0.90625V0.0055542Z" fill="#F7DF1E"/>
<path d="M7.14951 19.8475L8.96646 18.7478C9.31705 19.3694 9.63592 19.8952 10.4008 19.8952C11.134 19.8952 11.5964 19.6085 11.5964 18.4929V10.9062H13.8276V18.5244C13.8276 20.8354 12.4729 21.8874 10.4965 21.8874C8.71149 21.8874 7.67539 20.963 7.14941 19.8473M15.0396 19.6084L16.8563 18.5565C17.3347 19.3375 17.9563 19.9113 19.0559 19.9113C19.9805 19.9113 20.57 19.449 20.57 18.8115C20.57 18.0465 19.9644 17.7755 18.9443 17.3293L18.3866 17.09C16.7768 16.4049 15.709 15.5442 15.709 13.7272C15.709 12.0537 16.984 10.7786 18.9763 10.7786C20.3948 10.7786 21.4149 11.2727 22.148 12.5637L20.4106 13.6795C20.028 12.9942 19.6138 12.7232 18.9762 12.7232C18.3227 12.7232 17.9083 13.1376 17.9083 13.6795C17.9083 14.3488 18.3227 14.62 19.279 15.0344L19.8367 15.2734C21.7335 16.0863 22.8013 16.915 22.8013 18.7797C22.8013 20.788 21.2234 21.8877 19.1037 21.8877C17.0317 21.8877 15.6929 20.8995 15.0395 19.6085" fill="black"/>
</svg>
