<svg width="436" height="133" viewBox="0 0 436 133" fill="none" xmlns="http://www.w3.org/2000/svg">
<path d="M304.13 51.8168C304.13 68.6732 318.25 79.1812 337.424 79.1812H401.912C402.928 79.1047 403.949 79.2487 404.904 79.6031C405.86 79.9574 406.727 80.5139 407.448 81.2345C408.168 81.955 408.725 82.8226 409.079 83.778C409.434 84.7334 409.577 85.7541 409.501 86.7703V97.716C409.577 98.7322 409.434 99.7528 409.079 100.708C408.725 101.664 408.168 102.531 407.448 103.252C406.727 103.972 405.86 104.529 404.904 104.883C403.949 105.238 402.928 105.381 401.912 105.305H311.008V132.487H402.478C406.91 132.597 411.319 131.805 415.435 130.159C419.552 128.513 423.291 126.047 426.425 122.91C429.56 119.774 432.024 116.034 433.668 111.916C435.312 107.798 436.102 103.389 435.989 98.9566V86.9709C436.104 82.5402 435.317 78.1323 433.675 74.0155C432.032 69.8987 429.57 66.159 426.437 63.0241C423.303 59.8892 419.566 57.4245 415.45 55.7801C411.334 54.1356 406.927 53.3458 402.496 53.4587H338.372C337.356 53.5351 336.335 53.3912 335.38 53.0368C334.425 52.6825 333.557 52.126 332.836 51.4055C332.116 50.6849 331.559 49.8172 331.205 48.8618C330.851 47.9064 330.707 46.8858 330.783 45.8696V32.7895C330.722 32.1105 330.81 31.4262 331.042 30.7852C331.274 30.1441 331.645 29.5619 332.127 29.0798C332.609 28.5977 333.191 28.2274 333.832 27.9952C334.473 27.7631 335.157 27.6746 335.836 27.7362H425.226V0.609118H348.588C343.715 0.584731 339.031 2.4897 335.558 5.90784C332.085 9.32598 330.106 13.9795 330.053 18.852V26.441C330.058 26.6015 330.031 26.7614 329.975 26.9116C329.918 27.0618 329.832 27.1992 329.721 27.3161C329.611 27.433 329.479 27.5271 329.333 27.5929C329.186 27.6587 329.028 27.695 328.868 27.6998H328.776C325.53 27.4864 322.275 27.9598 319.223 29.0891C316.172 30.2184 313.393 31.9782 311.067 34.2538C308.742 36.5294 306.922 39.2697 305.727 42.2959C304.531 45.3221 303.987 48.5663 304.13 51.8168ZM273.902 53.5135H230.265V61.6862C230.241 66.3134 232.054 70.7609 235.307 74.0516C238.56 77.3423 242.987 79.207 247.614 79.2359H258.286V100.306C258.281 101.648 257.745 102.934 256.794 103.881C255.843 104.828 254.556 105.36 253.214 105.36H187.084C186.087 105.36 185.1 105.164 184.18 104.782C183.259 104.401 182.422 103.842 181.718 103.137C181.013 102.432 180.454 101.596 180.072 100.675C179.691 99.7542 179.495 98.7673 179.495 97.7707V35.38C179.492 34.3843 179.686 33.3978 180.066 32.4772C180.445 31.5565 181.003 30.7198 181.706 30.0149C182.409 29.3099 183.244 28.7506 184.164 28.369C185.084 27.9874 186.07 27.791 187.066 27.791H258.103V0.609118H185.132C180.82 0.609118 176.55 1.45847 172.566 3.10869C168.582 4.75892 164.962 7.17771 161.912 10.2269C155.754 16.3851 152.295 24.7373 152.295 33.4463V99.7592C152.295 108.468 155.754 116.82 161.912 122.979C164.962 126.028 168.582 128.447 172.566 130.097C176.55 131.747 180.82 132.596 185.132 132.596H240.171C242.61 132.594 245.024 132.111 247.276 131.176C249.528 130.24 251.574 128.87 253.297 127.144C255.02 125.418 256.386 123.369 257.317 121.115C258.248 118.861 258.726 116.446 258.724 114.007V106.71C258.716 106.548 258.741 106.386 258.797 106.234C258.853 106.081 258.939 105.942 259.049 105.823C259.159 105.704 259.292 105.608 259.44 105.541C259.588 105.474 259.747 105.437 259.91 105.433C274.65 105.013 284.136 97.8437 284.136 85.3655V53.5135H273.902Z" fill="#EA580C"/>
<path d="M33.3156 79.2906C14.1423 79.2906 0.0223377 68.7827 0.0223377 51.9263C-0.120558 48.6757 0.423366 45.4316 1.61861 42.4054C2.81385 39.3792 4.63357 36.6389 6.9591 34.3633C9.28464 32.0877 12.0638 30.3279 15.1152 29.1986C18.1666 28.0693 21.4218 27.5958 24.6685 27.8092H24.7597C24.9202 27.8045 25.0783 27.7682 25.2248 27.7023C25.3712 27.6365 25.5034 27.5425 25.6135 27.4256C25.7236 27.3087 25.8096 27.1712 25.8666 27.0211C25.9236 26.8709 25.9504 26.711 25.9455 26.5505V18.9615C25.9985 14.0889 27.9775 9.43546 31.4503 6.01732C34.9232 2.59918 39.6076 0.694213 44.4803 0.718599H121.119V27.8457H31.7285C31.0495 27.7841 30.3652 27.8725 29.7241 28.1047C29.0831 28.3368 28.5008 28.7071 28.0187 29.1893C27.5366 29.6714 27.1664 30.2536 26.9342 30.8946C26.702 31.5357 26.6136 32.22 26.6752 32.899V45.9791C26.5988 46.9953 26.7427 48.0159 27.0971 48.9713C27.4514 49.9267 28.0079 50.7944 28.7284 51.5149C29.449 52.2355 30.3167 52.792 31.2721 53.1463C32.2275 53.5007 33.2481 53.6446 34.2643 53.5682H98.388C102.819 53.4553 107.226 54.2451 111.342 55.8896C115.458 57.534 119.196 59.9987 122.33 63.1336C125.463 66.2685 127.925 70.0081 129.568 74.1249C131.21 78.2417 131.997 82.6496 131.882 87.0804V99.066C131.995 103.498 131.205 107.908 129.561 112.025C127.917 116.143 125.453 119.884 122.318 123.02C119.184 126.156 115.445 128.622 111.328 130.268C107.211 131.915 102.802 132.707 98.3698 132.596H6.89989V105.415H97.8042C98.8204 105.491 99.841 105.347 100.796 104.993C101.752 104.638 102.62 104.082 103.34 103.361C104.061 102.641 104.617 101.773 104.971 100.818C105.326 99.8623 105.47 98.8416 105.393 97.8254V86.8797C105.47 85.8636 105.326 84.8429 104.971 83.8875C104.617 82.9321 104.061 82.0645 103.34 81.3439C102.62 80.6234 101.752 80.0669 100.796 79.7125C99.841 79.3581 98.8204 79.2142 97.8042 79.2906H33.3156Z" fill="#EA580C"/>
</svg>
