<svg width="135" height="42" viewBox="0 0 135 42" fill="none" xmlns="http://www.w3.org/2000/svg">
<path d="M94.1688 16.1701C94.1688 21.3894 98.5408 24.643 104.477 24.643H124.445C124.76 24.6194 125.076 24.6639 125.372 24.7737C125.668 24.8834 125.936 25.0557 126.159 25.2788C126.382 25.5019 126.555 25.7705 126.664 26.0664C126.774 26.3622 126.819 26.6782 126.795 26.9929V30.382C126.819 30.6967 126.774 31.0127 126.664 31.3085C126.555 31.6043 126.382 31.873 126.159 32.0961C125.936 32.3192 125.668 32.4915 125.372 32.6012C125.076 32.7109 124.76 32.7555 124.445 32.7318H96.2983V41.1483H124.62C125.993 41.1824 127.358 40.9371 128.633 40.4274C129.907 39.9177 131.065 39.1541 132.035 38.1831C133.006 37.212 133.769 36.0538 134.278 34.7788C134.787 33.5038 135.031 32.1386 134.997 30.7661V27.055C135.032 25.6831 134.788 24.3182 134.28 23.0436C133.772 21.7689 133.009 20.6109 132.039 19.6403C131.069 18.6696 129.911 17.9064 128.637 17.3973C127.363 16.8881 125.998 16.6436 124.626 16.6785H104.771C104.457 16.7022 104.141 16.6576 103.845 16.5479C103.549 16.4382 103.28 16.2659 103.057 16.0428C102.834 15.8196 102.662 15.551 102.552 15.2552C102.442 14.9593 102.398 14.6433 102.421 14.3287V10.2786C102.402 10.0684 102.43 9.85652 102.502 9.65802C102.573 9.45953 102.688 9.27926 102.837 9.12998C102.987 8.9807 103.167 8.86605 103.365 8.79417C103.564 8.72228 103.776 8.6949 103.986 8.71398H131.664V0.314525H107.934C106.426 0.306974 104.975 0.896816 103.9 1.95518C102.825 3.01355 102.212 4.45442 102.195 5.96312V8.31293C102.197 8.36263 102.189 8.41215 102.171 8.45864C102.153 8.50514 102.127 8.54769 102.093 8.58389C102.059 8.62009 102.018 8.64922 101.972 8.6696C101.927 8.68998 101.878 8.70122 101.828 8.70268H101.8C100.795 8.63661 99.7868 8.7832 98.842 9.13287C97.8972 9.48254 97.0367 10.0274 96.3166 10.732C95.5966 11.4366 95.0331 12.2851 94.663 13.2221C94.293 14.1591 94.1245 15.1636 94.1688 16.1701ZM84.8091 16.6955H71.2976V19.226C71.2901 20.6587 71.8516 22.0358 72.8589 23.0547C73.8662 24.0737 75.2367 24.651 76.6694 24.66H79.9738V31.1841C79.9723 31.5996 79.8062 31.9976 79.5119 32.2909C79.2176 32.5841 78.819 32.7488 78.4035 32.7488H57.9273C57.6188 32.7488 57.3132 32.688 57.0281 32.5699C56.743 32.4518 56.484 32.2787 56.2658 32.0605C56.0476 31.8423 55.8745 31.5833 55.7564 31.2982C55.6383 31.0131 55.5775 30.7076 55.5775 30.399V11.0807C55.5768 10.7724 55.6369 10.467 55.7543 10.1819C55.8718 9.89687 56.0444 9.6378 56.2621 9.41952C56.4799 9.20125 56.7385 9.02806 57.0233 8.9099C57.3081 8.79174 57.6134 8.73092 57.9217 8.73092H79.9174V0.314525H57.3229C55.9877 0.314525 54.6656 0.577512 53.432 1.08848C52.1984 1.59944 51.0776 2.34838 50.1334 3.29252C48.2267 5.19929 47.1554 7.78542 47.1554 10.482V31.0147C47.1554 33.7113 48.2267 36.2974 50.1334 38.2042C51.0776 39.1483 52.1984 39.8972 53.432 40.4082C54.6656 40.9192 55.9877 41.1822 57.3229 41.1822H74.3648C75.1199 41.1814 75.8675 41.032 76.5649 40.7423C77.2623 40.4526 77.8958 40.0284 78.4292 39.4939C78.9626 38.9595 79.3856 38.3251 79.6739 37.6272C79.9622 36.9293 80.1102 36.1814 80.1094 35.4262V33.1668C80.1071 33.1166 80.1149 33.0665 80.1322 33.0194C80.1495 32.9722 80.176 32.929 80.2102 32.8922C80.2443 32.8554 80.2855 32.8257 80.3312 32.805C80.377 32.7843 80.4264 32.7728 80.4766 32.7714C85.0406 32.6415 87.9779 30.4215 87.9779 26.5579V16.6955H84.8091Z" fill="#FF6464"/>
<path d="M10.3156 24.6769C4.37893 24.6769 0.00691649 21.4233 0.00691649 16.204C-0.0373288 15.1975 0.131088 14.193 0.501175 13.256C0.871261 12.319 1.43471 11.4705 2.15477 10.7659C2.87483 10.0613 3.73535 9.51644 4.68017 9.16677C5.62499 8.8171 6.6329 8.67051 7.63818 8.73658H7.66643C7.71613 8.73512 7.76506 8.72386 7.81042 8.70348C7.85578 8.6831 7.89668 8.65399 7.93078 8.61779C7.96488 8.58159 7.99151 8.53903 8.00915 8.49254C8.02679 8.44605 8.03509 8.39653 8.03358 8.34682V5.99702C8.04998 4.48832 8.66276 3.04745 9.73806 1.98908C10.8134 0.930715 12.2638 0.340873 13.7726 0.348424H37.5023V8.74788H9.82419C9.61394 8.7288 9.40207 8.75617 9.20357 8.82805C9.00507 8.89994 8.8248 9.0146 8.67551 9.16388C8.52623 9.31316 8.4116 9.49342 8.33972 9.69192C8.26783 9.89042 8.24045 10.1023 8.25953 10.3125V14.3626C8.23587 14.6772 8.28043 14.9932 8.39015 15.2891C8.49987 15.5849 8.67217 15.8535 8.89528 16.0766C9.11838 16.2998 9.38704 16.4721 9.68286 16.5818C9.97869 16.6915 10.2947 16.7361 10.6093 16.7124H30.4642C31.8361 16.6775 33.2008 16.922 34.4752 17.4312C35.7496 17.9403 36.9072 18.7035 37.8773 19.6742C38.8474 20.6448 39.61 21.8028 40.1184 23.0774C40.6269 24.3521 40.8707 25.717 40.835 27.0889V30.8C40.8699 32.1725 40.6254 33.5377 40.1163 34.8127C39.6073 36.0877 38.8443 37.2459 37.8738 38.217C36.9033 39.188 35.7455 39.9516 34.4708 40.4613C33.1961 40.971 31.831 41.2163 30.4585 41.1822H2.13643V32.7657H30.2834C30.5981 32.7894 30.9141 32.7448 31.2099 32.6351C31.5057 32.5254 31.7744 32.3531 31.9975 32.13C32.2206 31.9069 32.3929 31.6382 32.5026 31.3424C32.6123 31.0466 32.6569 30.7305 32.6332 30.4159V27.0267C32.6569 26.7121 32.6123 26.3961 32.5026 26.1003C32.3929 25.8044 32.2206 25.5358 31.9975 25.3127C31.7744 25.0896 31.5057 24.9173 31.2099 24.8075C30.9141 24.6978 30.5981 24.6533 30.2834 24.6769H10.3156Z" fill="#FF6464"/>
</svg>
