<svg width="381" height="396" viewBox="0 0 381 396" fill="none" xmlns="http://www.w3.org/2000/svg">
<path fill-rule="evenodd" clip-rule="evenodd" d="M235.875 0.868913L42.2191 15.1299L42.0716 15.1427C29.2402 16.2539 17.5452 21.4575 9.54377 31.7056C2.00788 41.3575 0 52.6286 0 61.8081V273.61C0 290.004 6.39474 302.931 16.1515 315.934L16.2408 316.053L61.92 375.319L61.9886 375.407C67.4438 382.345 74.2617 388.53 83.9092 392.051C92.764 395.282 101.803 395.406 109.715 395.029L109.86 395.022L335.006 381.426L335.127 381.417C347.547 380.535 360.717 376.889 370.12 366.212C379.335 355.75 380.958 342.967 380.958 333.359V95.0753C380.958 86.7983 378.898 78.5009 372.39 70.965C368.595 66.5704 363.178 62.6545 359.406 59.9283C358.887 59.5528 358.398 59.1998 357.95 58.8713L357.768 58.7383L295.914 15.2639C287.833 9.40276 279.51 4.11203 268.519 1.62123C258.306 -0.693516 247.597 -0.133719 235.875 0.868913ZM44.056 38.0569L237.701 23.7967C239.187 23.6692 240.605 23.5551 241.959 23.4557C262.28 21.965 268.533 23.8019 282.545 33.9806L344.359 77.4261C344.891 77.8156 345.404 78.1905 345.899 78.5522C354.904 85.1258 357.958 87.3558 357.958 95.0753V333.359C357.958 347.359 353.177 355.996 336.907 358.134C335.822 358.277 334.687 358.391 333.498 358.475L108.619 372.055C94.3416 372.736 87.5464 370.701 80.0693 361.191L34.5487 302.131C34.0389 301.451 33.5477 300.782 33.0748 300.123C25.9812 290.237 23 282.531 23 273.61V61.8081C23 60.2816 23.085 58.7867 23.2643 57.3368C23.7339 53.5393 24.8501 50.0501 26.7789 47.1082C26.814 47.0547 26.8493 47.0014 26.8849 46.9483C26.9254 46.8879 26.9662 46.8277 27.0074 46.7677C30.2624 42.0312 35.7039 38.7802 44.056 38.0569Z" fill="white"/>
<path d="M80.7595 84.2182C91.6202 93.0413 95.6944 92.3681 116.088 91.0076L308.351 79.463C312.429 79.463 309.038 75.3949 307.678 74.7188L275.747 51.6355C269.629 46.8857 261.478 41.446 245.855 42.8066L59.6867 56.3852C52.8974 57.0584 51.5411 60.453 54.2453 63.1742L80.7595 84.2182Z" fill="white"/>
<path fill-rule="evenodd" clip-rule="evenodd" d="M92.3027 331.318V129.025C92.3027 120.201 95.0206 116.125 103.169 115.44L323.977 102.546C331.466 101.868 334.857 106.623 334.857 115.44V316.376C334.857 325.208 333.495 332.686 321.261 333.359L109.964 345.585C97.7357 346.257 92.3027 342.191 92.3027 331.318ZM294.768 152.79C300.894 152.102 302.249 145.992 300.894 139.876L254.001 142.606C247.206 143.279 241.778 148.708 243.135 156.184L260.804 158.213V251.899L191.501 145.995L141.221 149.384C131.703 150.068 128.311 158.886 129.672 165.002L146.654 166.363V300.099L134.424 303.489C129.67 304.848 128.308 311.631 129.67 314.35L176.538 311.631C193.54 311.631 193.54 299.418 193.54 299.418L172.467 294.662V193.514L239.06 298.057C247.206 308.234 249.929 311.631 260.804 311.631C267.596 311.631 275.747 308.915 284.586 304.164V154.818L294.768 152.79Z" fill="white"/>
</svg>
